<svg xmlns="http://www.w3.org/2000/svg" viewBox="0 0 64 64" role="img" aria-labelledby="title">
  <title>Third-party</title>
  <rect width="64" height="64" rx="18" fill="#1f2937"/>
  <path d="M18 22.5c0-4.142 3.358-7.5 7.5-7.5h12c4.142 0 7.5 3.358 7.5 7.5v4.5c0 4.142-3.358 7.5-7.5 7.5H25.5c-4.142 0-7.5-3.358-7.5-7.5zm7.5-2.5a2.5 2.5 0 0 0-2.5 2.5v4.5a2.5 2.5 0 0 0 2.5 2.5h12a2.5 2.5 0 0 0 2.5-2.5v-4.5a2.5 2.5 0 0 0-2.5-2.5z" fill="#fff"/>
  <path d="M21 42.5A3.5 3.5 0 0 1 24.5 39h15A3.5 3.5 0 0 1 43 42.5v.5A6.5 6.5 0 0 1 36.5 49h-9A6.5 6.5 0 0 1 21 43z" fill="#9ca3af"/>
</svg>
